<svg xmlns="http://www.w3.org/2000/svg" xmlns:xlink="http://www.w3.org/1999/xlink" width="450.797" height="437.399" viewBox="0 0 450.797 437.399">
  <defs>
    <linearGradient id="linear-gradient" x1="0.383" y1="0.5" x2="0.52" y2="0.5" gradientUnits="objectBoundingBox">
      <stop offset="0" stop-color="#cc8241"/>
      <stop offset="1" stop-color="#dea861"/>
    </linearGradient>
    <linearGradient id="linear-gradient-2" x1="0.222" y1="0.231" x2="0.736" y2="0.728" gradientUnits="objectBoundingBox">
      <stop offset="0" stop-color="#dea861"/>
      <stop offset="1" stop-color="#ebcba0"/>
    </linearGradient>
    <linearGradient id="linear-gradient-3" x1="0.697" y1="0.098" x2="0.755" y2="0.003" gradientUnits="objectBoundingBox">
      <stop offset="0" stop-color="#236568"/>
      <stop offset="1" stop-color="#2f878a"/>
    </linearGradient>
    <linearGradient id="linear-gradient-4" x1="0.543" y1="0.494" x2="0.63" y2="0.338" xlink:href="#linear-gradient-3"/>
  </defs>
  <g id="Grupo_143" data-name="Grupo 143" transform="translate(-640.601 -126)">
    <ellipse id="Elipse_18" data-name="Elipse 18" cx="192" cy="126.5" rx="192" ry="126.5" transform="translate(674 277)" fill="rgba(139,139,139,0.08)"/>
    <g id="_004-despeje" data-name="004-despeje" transform="translate(708.435 126)">
      <g id="Grupo_140" data-name="Grupo 140" transform="translate(6.328 0)">
        <path id="Trazado_281" data-name="Trazado 281" d="M309.617,305.359V116.4L6.328,129.4V318.365A12.735,12.735,0,0,0,12.755,329.5L132.9,398.866a27.618,27.618,0,0,0,27.618,0L303.19,316.494A12.736,12.736,0,0,0,309.617,305.359Z" transform="translate(-6.328 -32.199)" fill="url(#linear-gradient)"/>
        <path id="Trazado_282" data-name="Trazado 282" d="M12.755,86.072,155.427,3.7a27.616,27.616,0,0,1,27.617,0L303.19,73.066a12.855,12.855,0,0,1,0,22.265L160.517,177.7a27.616,27.616,0,0,1-27.617,0L12.755,108.337a12.855,12.855,0,0,1,0-22.265Z" transform="translate(-6.328 0)" fill="url(#linear-gradient-2)"/>
        <path id="Trazado_283" data-name="Trazado 283" d="M79.165,73.09,232.4,161.561l40.648-23.468L119.813,49.622Z" transform="translate(-26.477 -13.727)" fill="#dea861"/>
        <g id="Grupo_139" data-name="Grupo 139" transform="translate(69.021 45.324)">
          <path id="Trazado_284" data-name="Trazado 284" d="M109.705,62.657l153.236,88.471-7.962,4.6L101.743,67.254Z" transform="translate(-101.743 -62.657)" fill="#cc8241"/>
          <path id="Trazado_285" data-name="Trazado 285" d="M291,195.393v33.569l40.648-23.468V171.925Z" transform="translate(-154.097 -92.884)" fill="#cc8241"/>
        </g>
      </g>
      <g id="Grupo_142" data-name="Grupo 142" transform="translate(205.262 123.642)">
        <path id="Trazado_286" data-name="Trazado 286" d="M439.811,190.673a9.579,9.579,0,0,0-2.12-1.2l-29.231-16.6a9.58,9.58,0,0,0-14.265,3.2l-54.5,104.954-.58-.438a16.4,16.4,0,0,0-5.595-2.735l-.015-.028-25.741-15.045a16.459,16.459,0,0,0-4.481-2.394l-.056-.032.007.013a16.476,16.476,0,0,0-15.347,28.706l49.6,37.493,31.35,17.809,73.693-141.609A9.578,9.578,0,0,0,439.811,190.673Z" transform="translate(-281.338 -170.924)" fill="url(#linear-gradient-3)"/>
        <path id="Trazado_287" data-name="Trazado 287" d="M339.111,314.433a16.4,16.4,0,0,0-5.594-2.735l-.015-.028-25.741-15.045a16.457,16.457,0,0,0-4.481-2.394l-.056-.032.007.013a16.476,16.476,0,0,0-15.347,28.706l49.6,37.493,31.35,17.809Z" transform="translate(-281.339 -204.777)" fill="url(#linear-gradient-4)"/>
        <g id="Grupo_141" data-name="Grupo 141" transform="translate(31.352 17.809)">
          <path id="Trazado_288" data-name="Trazado 288" d="M380.819,351.177l-49.6-37.493A16.481,16.481,0,1,1,351.1,287.39l29.718,22.467,56.717-109.174a9.58,9.58,0,0,1,16.976,8.884Z" transform="translate(-324.679 -195.543)" fill="#06daae"/>
        </g>
      </g>
    </g>
  </g>
</svg>
