<svg xmlns="http://www.w3.org/2000/svg" width="51.2" height="51.194" viewBox="0 0 51.2 51.194">
  <g id="_005-envio" data-name="005-envio" transform="translate(-18.333 -18.331)">
    <path id="Trazado_3" data-name="Trazado 3" d="M31.072,8.015l-12.436.051a4.451,4.451,0,0,0-3.888,2.3l-6.5,11.748,21.573-.051Z" transform="translate(10.879 10.367)" fill="#a6e087"/>
    <path id="Trazado_4" data-name="Trazado 4" d="M39.506,22.045,32.93,10.3A4.5,4.5,0,0,0,29.016,8L16.58,8.05,17.886,22.1Z" transform="translate(29.211 10.332)" fill="#a6e087"/>
    <path id="Trazado_5" data-name="Trazado 5" d="M59.178,13.577l-23.669.077H31.672L8,13.705V42.654a4.265,4.265,0,0,0,4.275,4.266l19.752-.042,22.9.042A4.269,4.269,0,0,0,59.2,42.651ZM52.8,38.929a1.6,1.6,0,0,1-1.6,1.6H37.336a1.6,1.6,0,0,1-1.6-1.6V31.463a1.6,1.6,0,0,1,1.6-1.6H51.2a1.6,1.6,0,0,1,1.6,1.6Z" transform="translate(10.333 22.605)" fill="#77c050"/>
  </g>
</svg>
